<?xml version="1.0" standalone="no"?>
<!DOCTYPE svg PUBLIC "-//W3C//DTD SVG 20010904//EN"
 "http://www.w3.org/TR/2001/REC-SVG-20010904/DTD/svg10.dtd">
<svg version="1.0" xmlns="http://www.w3.org/2000/svg"
 width="218.000000pt" height="231.000000pt" viewBox="0 0 218.000000 231.000000"
 preserveAspectRatio="xMidYMid meet">

<g transform="translate(0.000000,231.000000) scale(0.100000,-0.100000)"
fill="#000000" stroke="none">
<path d="M872 2180 c-52 -12 -108 -27 -125 -35 l-32 -14 35 5 c21 3 2 -7 -47
-24 -245 -87 -431 -233 -552 -434 -33 -56 -19 -46 22 15 77 114 211 228 352
300 78 39 276 110 284 101 3 -2 -4 -11 -15 -20 -17 -14 -14 -15 41 -8 101 11
289 5 371 -12 91 -18 147 -36 227 -71 66 -30 71 -40 7 -18 -65 23 -72 17 -10
-8 79 -33 175 -100 250 -176 75 -76 128 -176 162 -302 12 -44 22 -78 24 -77 1
2 -2 44 -7 93 -9 97 -37 202 -75 277 -34 67 -30 73 6 11 17 -29 45 -95 63
-145 30 -89 32 -100 32 -243 0 -129 -3 -161 -24 -230 -74 -247 -195 -388 -398
-462 -79 -29 -204 -40 -283 -25 -30 6 -56 9 -57 8 -6 -6 49 -106 77 -141 l32
-40 -27 -3 c-15 -2 -49 7 -76 21 -27 13 -49 23 -49 22 0 -2 7 -19 15 -38 12
-29 27 -42 78 -66 65 -31 172 -61 217 -61 l25 0 -25 20 -25 20 85 0 c142 1
269 42 383 126 50 36 58 55 15 34 -26 -12 -24 -11 67 64 52 42 105 118 87 124
-8 2 -3 15 16 40 28 36 62 94 62 107 0 4 -16 -3 -35 -15 -32 -20 -34 -20 -28
-3 3 10 14 29 23 43 23 33 65 118 75 150 7 24 7 24 -12 7 -11 -9 -22 -17 -26
-17 -9 0 2 57 24 118 24 66 24 90 2 88 -20 -1 -21 12 -10 116 3 32 2 60 -4 63
-5 4 -9 1 -9 -4 0 -6 -4 -11 -9 -11 -10 0 -26 68 -37 154 -4 35 -9 45 -17 37
-8 -8 -19 5 -43 47 -17 32 -35 72 -38 89 -4 18 -12 30 -19 28 -7 -3 -25 14
-42 36 -72 99 -226 218 -351 274 -128 57 -226 77 -399 81 -133 3 -176 0 -253
-16z"/>
<path d="M951 2015 c-17 -20 -31 -43 -30 -53 0 -13 2 -12 9 4 5 12 14 25 21
30 9 5 10 2 6 -9 -8 -22 9 -66 31 -83 28 -22 31 -16 10 24 -13 26 -18 50 -15
80 3 23 3 42 2 42 -2 0 -17 -16 -34 -35z"/>
<path d="M1081 1943 c-2 -85 34 -184 92 -250 34 -39 32 -38 -53 19 -30 20 -72
44 -94 53 l-38 16 41 -48 c22 -27 47 -68 56 -92 l15 -44 -47 7 c-27 4 -75 9
-108 12 l-60 6 50 -26 c89 -45 149 -112 125 -141 -10 -12 -16 -13 -26 -4 -11
9 -14 8 -14 -5 0 -9 3 -16 8 -16 4 0 14 -4 22 -10 12 -7 12 -12 -4 -28 -17
-20 -16 -20 16 -26 89 -17 123 -32 159 -66 43 -41 51 -80 23 -111 -14 -16 -14
-18 5 -28 31 -17 106 -25 126 -13 16 8 14 11 -12 16 -54 12 -67 37 -65 120 3
65 0 77 -20 101 -13 15 -35 28 -50 28 -21 2 -24 5 -15 16 10 11 7 13 -13 7
l-25 -7 25 15 c32 19 41 20 34 1 -4 -10 3 -16 23 -20 15 -4 49 -16 75 -27 40
-18 53 -30 63 -58 9 -27 19 -40 31 -40 8 0 13 -6 12 -12 -2 -8 6 -12 20 -11
22 3 30 -11 12 -22 -17 -11 -11 -25 10 -25 12 0 35 7 52 16 l32 17 -18 -27
-17 -27 28 15 c48 26 71 50 77 81 6 28 0 36 -68 98 -51 46 -83 67 -100 67 -16
0 -32 9 -42 25 -22 34 -13 40 26 20 53 -28 56 0 6 59 -98 117 -152 219 -164
312 l-8 59 -13 -69 c-14 -81 -9 -113 31 -184 l29 -54 -41 34 c-71 56 -165 185
-194 264 l-15 39 0 -32z m213 -344 c22 -17 26 -18 26 -4 0 20 16 11 31 -16 10
-19 9 -20 -10 -9 -12 6 -21 8 -21 5 0 -2 -15 4 -32 15 -41 25 -55 26 -37 3 11
-14 8 -14 -11 2 -14 11 -27 21 -29 22 -2 2 9 3 26 3 17 0 42 -9 57 -21z m-56
-25 c24 -7 30 -24 8 -24 -8 0 -24 -12 -35 -26 -18 -23 -24 -25 -44 -16 -12 6
-16 11 -8 11 11 1 10 5 -5 16 -18 14 -18 14 10 15 24 0 27 2 16 15 -10 13 -9
15 11 15 13 0 34 -3 47 -6z m312 -219 c33 -19 21 -19 -21 0 -19 8 -27 14 -19
14 8 0 26 -6 40 -14z m55 -15 c-3 -5 -10 -10 -16 -10 -5 0 -9 5 -9 10 0 6 7
10 16 10 8 0 12 -4 9 -10z m-75 -10 c0 -5 -2 -10 -4 -10 -3 0 -8 5 -11 10 -3
6 -1 10 4 10 6 0 11 -4 11 -10z"/>
<path d="M787 1912 c22 -17 20 -17 -65 -18 -141 -2 -248 -38 -375 -127 -54
-38 -72 -61 -29 -38 39 21 33 11 -15 -28 -50 -39 -116 -110 -135 -145 -8 -16
-7 -18 6 -13 21 8 21 -7 -1 -24 -22 -19 -73 -99 -73 -117 0 -10 7 -8 26 7 40
32 49 25 23 -16 -40 -67 -77 -137 -84 -163 -7 -24 -7 -24 12 -7 11 9 22 17 26
17 9 0 -4 -70 -20 -110 -8 -19 -18 -52 -22 -72 -8 -34 -7 -37 9 -28 25 14 31
-16 18 -94 -8 -45 -7 -69 0 -82 10 -17 11 -17 12 -1 0 9 4 17 9 17 8 0 25 -75
36 -164 5 -35 10 -45 18 -37 8 8 19 -5 42 -47 18 -31 35 -69 39 -84 3 -16 10
-27 14 -25 4 1 37 -32 73 -73 150 -172 336 -275 574 -316 130 -23 328 -14 455
21 94 26 134 43 73 32 -52 -10 -38 0 25 18 195 57 406 203 517 360 51 73 66
103 28 55 -93 -115 -205 -212 -318 -276 -67 -37 -222 -96 -285 -109 l-35 -6
30 20 30 21 -50 -7 c-27 -5 -120 -8 -205 -7 -123 0 -173 5 -242 22 -191 47
-344 144 -453 287 -65 86 -102 157 -131 255 -21 69 -23 72 -23 35 -1 -48 28
-168 58 -245 13 -34 16 -48 7 -36 -23 29 -74 178 -86 248 -22 136 -7 274 45
418 97 266 326 424 594 407 47 -3 94 -8 103 -12 16 -6 17 -4 6 26 -6 18 -31
61 -54 96 l-44 63 28 0 c16 0 50 -11 75 -24 51 -25 55 -21 32 24 -26 51 -194
120 -290 120 l-30 0 22 -18z"/>
<path d="M1497 1639 c4 -13 8 -18 11 -10 2 7 -1 18 -6 23 -8 8 -9 4 -5 -13z"/>
<path d="M1490 1585 c0 -2 27 -22 61 -44 33 -22 59 -35 56 -28 -3 11 -117 81
-117 72z"/>
<path d="M600 1529 c-133 -89 -160 -126 -160 -218 l0 -51 46 30 c83 52 246 94
318 80 38 -7 55 -33 38 -60 -18 -29 0 -24 32 9 37 39 32 71 -14 92 l-35 17 42
12 c33 10 46 10 57 1 10 -9 15 -9 19 1 6 18 -8 54 -25 60 -13 5 -83 -11 -123
-28 -19 -8 -19 -7 -4 16 9 14 30 32 47 41 38 19 32 29 -18 29 -42 0 -52 -9
-70 -64 -11 -34 -20 -42 -84 -71 -39 -19 -72 -32 -74 -31 -1 2 13 27 32 55 30
44 61 119 53 127 -1 2 -36 -20 -77 -47z"/>
<path d="M1595 1449 c-4 -6 -5 -12 -2 -15 2 -3 7 2 10 11 7 17 1 20 -8 4z"/>
<path d="M1590 1406 c0 -2 8 -10 18 -17 15 -13 16 -12 3 4 -13 16 -21 21 -21
13z"/>
<path d="M687 1346 c-21 -8 -47 -22 -58 -32 -40 -36 -13 -81 41 -69 28 6 29 8
14 19 -23 17 -11 50 29 75 37 24 28 26 -26 7z"/>
<path d="M1050 1294 c0 -5 12 -22 26 -39 l26 -30 -23 35 c-29 45 -29 45 -29
34z"/>
<path d="M1181 1277 c2 -1 13 -9 24 -17 19 -14 19 -14 6 3 -7 9 -18 17 -24 17
-6 0 -8 -1 -6 -3z"/>
<path d="M1373 1266 c4 -6 7 -27 7 -48 0 -28 5 -40 21 -49 21 -11 21 -10 5 12
-20 29 -20 39 -2 39 29 0 48 -32 43 -71 -3 -21 0 -45 7 -54 9 -12 11 -2 11 49
0 62 -6 79 -26 82 -5 1 -13 2 -19 3 -5 0 -19 11 -32 24 -13 12 -20 18 -15 13z"/>
<path d="M707 1180 c2 -69 13 -95 43 -97 11 -1 29 -10 38 -20 9 -10 14 -14 10
-9 -5 6 -8 27 -8 47 0 24 -5 39 -15 43 -17 6 -21 -9 -5 -19 15 -9 12 -35 -4
-35 -24 0 -39 30 -40 80 -1 27 -6 54 -11 59 -7 7 -9 -10 -8 -49z"/>
<path d="M1186 1221 c-4 -6 -4 -16 0 -23 4 -7 3 -8 -4 -4 -21 12 -13 -12 12
-38 16 -19 33 -26 57 -25 l34 0 -35 12 c-24 8 -35 18 -35 32 -1 29 -21 60 -29
46z"/>
<path d="M953 1164 c19 -10 27 -21 24 -33 -2 -10 2 -26 9 -36 13 -18 14 -18
14 4 0 12 4 19 10 16 16 -10 -1 28 -21 48 -10 9 -28 17 -41 17 -22 -1 -21 -2
5 -16z"/>
<path d="M800 1160 c0 -5 6 -10 14 -10 7 0 25 -9 40 -21 24 -19 26 -26 26 -98
0 -93 21 -131 72 -131 25 0 28 -2 19 -14 -10 -12 -8 -14 11 -10 22 5 22 5 -2
-10 -32 -19 -44 -20 -36 -1 4 10 -6 18 -37 26 -46 12 -116 48 -118 61 -1 4 -2
14 -3 21 -1 14 -35 47 -48 47 -5 0 -6 5 -2 12 5 8 0 9 -14 6 -25 -7 -26 -4
-12 23 9 16 7 19 -12 19 -13 0 -35 -7 -50 -14 -34 -18 -36 -10 -5 22 l22 25
-25 -13 c-53 -28 -88 -61 -94 -91 -5 -28 0 -37 67 -100 52 -49 80 -68 99 -69
18 0 33 -9 44 -25 22 -34 13 -40 -26 -20 -49 25 -62 4 -23 -37 94 -101 173
-244 181 -332 5 -42 7 -46 13 -26 4 14 7 56 8 94 1 60 -3 76 -31 125 l-32 56
35 -26 c55 -42 144 -153 183 -232 l37 -72 -6 60 c-9 80 -36 147 -80 201 -42
51 -38 56 14 16 36 -29 66 -47 130 -78 l34 -16 -41 49 c-23 27 -48 68 -56 91
l-16 43 98 -5 c53 -4 90 -3 82 0 -78 34 -159 117 -146 150 6 17 36 19 36 2 0
-6 2 -9 5 -6 12 11 -8 38 -28 38 -20 0 -20 0 2 24 26 27 24 29 -54 41 -111 17
-200 127 -139 172 20 14 20 14 -19 31 -34 15 -117 16 -117 2z m-182 -187 c-10
-2 -28 -2 -40 0 -13 2 -5 4 17 4 22 1 32 -1 23 -4z m57 -13 c19 -8 19 -9 -2
-9 -12 -1 -25 4 -28 9 -7 12 2 12 30 0z m345 -180 c12 -8 12 -10 -5 -10 -20
-1 -20 -1 -1 -15 19 -14 19 -15 -8 -15 -21 0 -27 -4 -22 -15 7 -20 -23 -20
-52 1 -26 18 -28 12 -6 -21 19 -29 18 -29 -25 -14 -30 11 -59 45 -47 56 3 3 8
-2 12 -11 3 -9 16 -21 27 -27 17 -10 19 -9 14 5 -9 23 2 46 22 46 9 0 25 7 35
15 23 17 35 18 56 5z m-189 -24 c5 3 9 -7 9 -23 l-1 -28 -14 25 c-8 14 -14 30
-14 35 0 6 3 4 6 -3 2 -6 9 -10 14 -6z"/>
<path d="M1099 1052 c11 -16 28 -35 38 -43 9 -8 2 5 -17 29 -38 48 -52 57 -21
14z"/>
<path d="M1490 1060 c-13 -8 -12 -10 3 -10 25 0 21 -30 -10 -62 -15 -16 -21
-28 -14 -28 24 0 91 43 97 62 12 38 -38 62 -76 38z"/>
<path d="M1699 1028 c-49 -40 -168 -79 -261 -85 -91 -7 -113 4 -104 50 6 29 5
29 -17 15 -29 -20 -45 -63 -31 -86 6 -9 24 -20 40 -23 l29 -6 -39 -17 c-30
-13 -45 -15 -62 -7 -21 9 -22 8 -18 -16 3 -15 7 -30 10 -35 8 -13 62 -9 101 7
19 8 40 15 46 15 15 0 -44 -60 -68 -70 -18 -7 -18 -8 8 -15 47 -12 74 1 88 42
6 21 17 44 23 52 13 17 136 74 143 67 3 -2 -7 -20 -21 -38 -30 -40 -70 -127
-62 -135 7 -7 101 54 163 104 50 41 76 100 71 165 l-3 45 -36 -29z"/>
<path d="M570 800 c0 -5 19 -19 43 -31 48 -25 47 -21 -6 15 -20 14 -37 21 -37
16z"/>
<path d="M660 746 c0 -2 8 -10 18 -17 15 -13 16 -12 3 4 -13 16 -21 21 -21 13z"/>
<path d="M1170 416 c0 -2 7 -21 16 -42 10 -23 14 -52 11 -72 -4 -23 -2 -32 6
-29 15 4 57 66 57 81 -1 6 -8 -2 -18 -19 l-17 -30 -3 25 c-6 51 -12 65 -32 78
-11 7 -20 10 -20 8z"/>
</g>
</svg>
